<?xml version="1.0" encoding="UTF-8"?>
<svg id="Layer_1" data-name="Layer 1" xmlns="http://www.w3.org/2000/svg" xmlns:xlink="http://www.w3.org/1999/xlink" viewBox="0 0 1250 969">
  <defs>
    <style>
      .cls-1 {
        fill: none;
      }

      .cls-2 {
        filter: url(#drop-shadow-15);
      }

      .cls-2, .cls-3, .cls-4, .cls-5, .cls-6, .cls-7, .cls-8, .cls-9, .cls-10 {
        fill: #fff;
      }

      .cls-3 {
        filter: url(#drop-shadow-14);
      }

      .cls-4 {
        filter: url(#drop-shadow-13);
      }

      .cls-5 {
        filter: url(#drop-shadow-16);
      }

      .cls-6 {
        filter: url(#drop-shadow-12);
      }

      .cls-7 {
        filter: url(#drop-shadow-11);
      }

      .cls-8 {
        filter: url(#drop-shadow-17);
      }

      .cls-11 {
        fill: #d6d6d6;
      }

      .cls-12 {
        fill: #e6e6e6;
      }

      .cls-13 {
        fill: url(#linear-gradient-8);
      }

      .cls-14 {
        fill: url(#linear-gradient-7);
      }

      .cls-15 {
        fill: url(#linear-gradient-5);
      }

      .cls-16 {
        fill: url(#linear-gradient-6);
      }

      .cls-17 {
        fill: url(#linear-gradient-9);
      }

      .cls-18 {
        fill: url(#linear-gradient-4);
      }

      .cls-19 {
        fill: url(#linear-gradient-3);
      }

      .cls-20 {
        fill: url(#linear-gradient-2);
      }

      .cls-21 {
        fill: #f3f3f3;
        filter: url(#drop-shadow-10);
      }

      .cls-22 {
        fill: url(#linear-gradient);
      }

      .cls-23 {
        fill: url(#linear-gradient-10);
      }

      .cls-24 {
        fill: url(#linear-gradient-11);
        filter: url(#drop-shadow-18);
      }

      .cls-25 {
        fill: url(#Dots_custom);
      }

      .cls-26 {
        fill: #f5f5f5;
      }

      .cls-27 {
        fill: url(#Dots_custom-2);
      }

      .cls-10 {
        stroke: #fff;
        stroke-miterlimit: 10;
      }

      .cls-28 {
        fill: #e8e8e8;
      }
    </style>
    <pattern id="Dots_custom" x="0" y="0" width="48" height="48" patternTransform="translate(-18184.42 681.23) rotate(-180) scale(1.07 -1.12)" patternUnits="userSpaceOnUse" viewBox="0 0 48 48">
      <g>
        <rect class="cls-1" width="48" height="48"/>
        <g>
          <g>
            <circle class="cls-12" cx="36" cy="36" r="3.6"/>
            <circle class="cls-12" cx="36" cy="12" r="3.6"/>
          </g>
          <g>
            <circle class="cls-12" cx="13" cy="36" r="3.6"/>
            <circle class="cls-12" cx="13" cy="12" r="3.6"/>
          </g>
        </g>
      </g>
    </pattern>
    <pattern id="Dots_custom-2" data-name="Dots_custom" patternTransform="translate(-18152.42 304.29) rotate(-180) scale(1.05 -1.05)" xlink:href="#Dots_custom"/>
    <linearGradient id="linear-gradient" x1="-6468.92" y1="323.79" x2="-5954.66" y2="620.7" gradientTransform="translate(-5655.66) rotate(-180) scale(1 -1)" gradientUnits="userSpaceOnUse">
      <stop offset="0" stop-color="#ff7def"/>
      <stop offset=".15" stop-color="#f7e"/>
      <stop offset=".34" stop-color="#ff68ec"/>
      <stop offset=".55" stop-color="#ff4ee9"/>
      <stop offset=".78" stop-color="#ff2be5"/>
      <stop offset="1" stop-color="#ff00e0"/>
    </linearGradient>
    <filter id="drop-shadow-10" x="185.66" y="134.9" width="375.12" height="244.8" filterUnits="userSpaceOnUse">
      <feOffset dx="0" dy="0"/>
      <feGaussianBlur result="blur" stdDeviation="5"/>
      <feFlood flood-color="#3d3d3d" flood-opacity=".25"/>
      <feComposite in2="blur" operator="in"/>
      <feComposite in="SourceGraphic"/>
    </filter>
    <filter id="drop-shadow-11" x="196.7" y="140.9" width="99.36" height="232.8" filterUnits="userSpaceOnUse">
      <feOffset dx="5" dy="0"/>
      <feGaussianBlur result="blur-2" stdDeviation="3"/>
      <feFlood flood-color="#3d3d3d" flood-opacity=".1"/>
      <feComposite in2="blur-2" operator="in"/>
      <feComposite in="SourceGraphic"/>
    </filter>
    <filter id="drop-shadow-12" x="191.66" y="144.26" width="363.12" height="62.4" filterUnits="userSpaceOnUse">
      <feOffset dx="0" dy="5"/>
      <feGaussianBlur result="blur-3" stdDeviation="3"/>
      <feFlood flood-color="#3d3d3d" flood-opacity=".15"/>
      <feComposite in2="blur-3" operator="in"/>
      <feComposite in="SourceGraphic"/>
    </filter>
    <filter id="drop-shadow-13" x="290.78" y="201.62" width="123.36" height="59.04" filterUnits="userSpaceOnUse">
      <feOffset dx="0" dy="0"/>
      <feGaussianBlur result="blur-4" stdDeviation="3"/>
      <feFlood flood-color="#000" flood-opacity=".15"/>
      <feComposite in2="blur-4" operator="in"/>
      <feComposite in="SourceGraphic"/>
    </filter>
    <filter id="drop-shadow-14" x="288.62" y="256.58" width="222.24" height="100.56" filterUnits="userSpaceOnUse">
      <feOffset dx="0" dy="0"/>
      <feGaussianBlur result="blur-5" stdDeviation="3"/>
      <feFlood flood-color="#000" flood-opacity=".15"/>
      <feComposite in2="blur-5" operator="in"/>
      <feComposite in="SourceGraphic"/>
    </filter>
    <linearGradient id="linear-gradient-2" x1="381.99" y1="288.62" x2="381.99" y2="297.22" gradientUnits="userSpaceOnUse">
      <stop offset="0" stop-color="#704fff"/>
      <stop offset=".27" stop-color="#6b49ff"/>
      <stop offset=".61" stop-color="#5e3aff"/>
      <stop offset=".98" stop-color="#4920ff"/>
      <stop offset="1" stop-color="#481fff"/>
    </linearGradient>
    <linearGradient id="linear-gradient-3" x1="342.96" y1="226.82" x2="342.96" y2="235.41" gradientTransform="matrix(1,0,0,1,0,0)" xlink:href="#linear-gradient"/>
    <linearGradient id="linear-gradient-4" x1="215.67" y1="224.88" x2="267.24" y2="224.88" gradientUnits="userSpaceOnUse">
      <stop offset="0" stop-color="#a3fff5"/>
      <stop offset=".13" stop-color="#9dfff4"/>
      <stop offset=".29" stop-color="#8efff2"/>
      <stop offset=".47" stop-color="#74fff0"/>
      <stop offset=".66" stop-color="#50ffec"/>
      <stop offset=".86" stop-color="#23ffe7"/>
      <stop offset="1" stop-color="#00ffe4"/>
    </linearGradient>
    <filter id="drop-shadow-15" x="358.7" y="392.66" width="209.28" height="183.12" filterUnits="userSpaceOnUse">
      <feOffset dx="0" dy="0"/>
      <feGaussianBlur result="blur-6" stdDeviation="5"/>
      <feFlood flood-color="#000" flood-opacity=".25"/>
      <feComposite in2="blur-6" operator="in"/>
      <feComposite in="SourceGraphic"/>
    </filter>
    <linearGradient id="linear-gradient-5" x1="410.93" y1="529.85" x2="410.93" y2="538.92" gradientTransform="matrix(1,0,0,1,0,0)" xlink:href="#linear-gradient"/>
    <linearGradient id="linear-gradient-6" x1="463.27" y1="426.15" x2="463.27" y2="520.29" xlink:href="#linear-gradient-2"/>
    <linearGradient id="linear-gradient-7" x1="486.42" y1="426.03" x2="486.42" y2="473.1" gradientUnits="userSpaceOnUse">
      <stop offset="0" stop-color="#8cffd4"/>
      <stop offset=".14" stop-color="#86ffd1"/>
      <stop offset=".32" stop-color="#7fc"/>
      <stop offset=".52" stop-color="#5dffc2"/>
      <stop offset=".73" stop-color="#39ffb4"/>
      <stop offset=".94" stop-color="#0cffa3"/>
      <stop offset="1" stop-color="#00ff9f"/>
    </linearGradient>
    <filter id="drop-shadow-16" x="253.1" y="602.42" width="303.84" height="189.84" filterUnits="userSpaceOnUse">
      <feOffset dx="0" dy="0"/>
      <feGaussianBlur result="blur-7" stdDeviation="5"/>
      <feFlood flood-color="#000" flood-opacity=".25"/>
      <feComposite in2="blur-7" operator="in"/>
      <feComposite in="SourceGraphic"/>
    </filter>
    <linearGradient id="linear-gradient-8" x1="343.57" y1="684.99" x2="343.57" y2="746.21" gradientTransform="translate(-372.03 1059.17) rotate(-90)" xlink:href="#linear-gradient"/>
    <linearGradient id="linear-gradient-9" x1="405.02" y1="660.64" x2="405.02" y2="746.21" gradientTransform="translate(-298.4 1108.45) rotate(-90)" xlink:href="#linear-gradient-2"/>
    <linearGradient id="linear-gradient-10" x1="466.48" y1="649.99" x2="466.48" y2="746.21" gradientTransform="translate(-231.62 1164.57) rotate(-90)" xlink:href="#linear-gradient-7"/>
    <filter id="drop-shadow-17" x="800.3" y="356.18" width="265.68" height="231.6" filterUnits="userSpaceOnUse">
      <feOffset dx="0" dy="0"/>
      <feGaussianBlur result="blur-8" stdDeviation="5"/>
      <feFlood flood-color="#000" flood-opacity=".25"/>
      <feComposite in2="blur-8" operator="in"/>
      <feComposite in="SourceGraphic"/>
    </filter>
    <linearGradient id="linear-gradient-11" x1="-2387" y1="502" x2="-2387" y2="502" xlink:href="#linear-gradient-7"/>
    <filter id="drop-shadow-18" x="860.54" y="401.54" width="145.2" height="144.96" filterUnits="userSpaceOnUse">
      <feOffset dx="0" dy="2"/>
      <feGaussianBlur result="blur-9" stdDeviation="3"/>
      <feFlood flood-color="#3d3d3d" flood-opacity=".15"/>
      <feComposite in2="blur-9" operator="in"/>
      <feComposite in="SourceGraphic"/>
    </filter>
  </defs>
  <path class="cls-26" d="M326.68,612.88c50.17,50.41,126.3,79.76,192.97,105.64,242.76,97.99,473.01,124.85,401.68-220-35.08-221.26-100.63-542.72-375.07-307.68-114.02,97.65-358.91,268.89-219.58,422.05Z"/>
  <polygon class="cls-25" points="829.91 384.74 1008.79 384.74 1008.79 114.3 829.91 114.3 829.91 384.74"/>
  <polygon class="cls-27" points="199.17 869.37 378.05 869.37 378.05 598.94 199.17 598.94 199.17 869.37"/>
  <path class="cls-22" d="M967.79,534.84c-36.03,54.33-99.18,94.4-154.45,129.64-200.57,131.71-402.68,197.26-400.57-125.52-8.25-205.17-7.14-505.88,281.78-343.97,120.04,67.27,370.93,177.14,273.24,339.84Z"/>
  <g>
    <rect class="cls-21" x="200.87" y="149.97" width="344.88" height="214.66" rx="25" ry="25"/>
    <path class="cls-7" d="M225.87,149.97h56.18v214.66h-56.18c-13.8,0-25-11.2-25-25v-164.66c0-13.8,11.2-25,25-25Z"/>
    <path class="cls-6" d="M225.87,148.27h294.88c13.8,0,25,11.2,25,25v19.36H200.87v-19.36c0-13.8,11.2-25,25-25Z"/>
    <rect class="cls-4" x="299.8" y="210.68" width="105.17" height="40.87" rx="18" ry="18"/>
    <rect class="cls-3" x="297.8" y="265.61" width="203.95" height="82.32" rx="18" ry="18"/>
    <rect class="cls-20" x="315.44" y="288.62" width="133.1" height="8.59" rx="4.08" ry="4.08"/>
    <rect class="cls-11" x="315.44" y="304.49" width="158.31" height="8.59" rx="4.08" ry="4.08"/>
    <rect class="cls-28" x="315.44" y="320.36" width="130.08" height="8.59" rx="4.08" ry="4.08"/>
    <rect class="cls-19" x="317.18" y="226.82" width="51.57" height="8.59" rx="4.08" ry="4.08"/>
    <rect class="cls-18" x="215.67" y="209.13" width="51.57" height="31.5" rx="4.08" ry="4.08"/>
    <rect class="cls-28" x="215.67" y="250.13" width="51.57" height="8.59" rx="4.08" ry="4.08"/>
    <rect class="cls-11" x="223.67" y="266.13" width="35.57" height="8.59" rx="4.08" ry="4.08"/>
  </g>
  <g>
    <rect class="cls-2" x="373.79" y="407.75" width="178.96" height="152.97" rx="25" ry="25"/>
    <g>
      <rect class="cls-15" x="392.27" y="529.85" width="37.34" height="9.07" rx="4.53" ry="4.53"/>
      <rect class="cls-28" x="444.6" y="529.85" width="37.34" height="9.07" rx="4.53" ry="4.53"/>
      <rect class="cls-28" x="496.94" y="529.85" width="37.34" height="9.07" rx="4.53" ry="4.53"/>
    </g>
    <g>
      <path class="cls-16" d="M463.27,520.29c-25.95,0-47.07-21.12-47.07-47.07s21.12-47.07,47.07-47.07,47.07,21.12,47.07,47.07-21.11,47.07-47.07,47.07ZM463.27,441.5c-17.49,0-31.72,14.23-31.72,31.72s14.23,31.72,31.72,31.72,31.72-14.23,31.72-31.72-14.23-31.72-31.72-31.72Z"/>
      <path class="cls-14" d="M510.13,473.1h-15.35c0-17.49-14.23-31.72-31.72-31.72h-.24s-.12-15.34-.12-15.34h.35c25.95,0,47.07,21.11,47.07,47.07Z"/>
    </g>
  </g>
  <g>
    <rect class="cls-5" x="268.3" y="617.65" width="273.45" height="159.38" rx="25" ry="25"/>
    <path class="cls-13" d="M318.87,697.37h55.31v36.45h-55.31c-3.26,0-5.91-2.65-5.91-5.91v-24.64c0-3.26,2.65-5.91,5.91-5.91Z" transform="translate(1059.17 372.03) rotate(90)"/>
    <path class="cls-17" d="M368.15,685.2h79.66v36.45h-79.66c-3.26,0-5.91-2.65-5.91-5.91v-24.64c0-3.26,2.65-5.91,5.91-5.91Z" transform="translate(1108.45 298.4) rotate(90)"/>
    <path class="cls-23" d="M424.27,679.87h90.31v36.45h-90.31c-3.26,0-5.91-2.65-5.91-5.91v-24.64c0-3.26,2.65-5.91,5.91-5.91Z" transform="translate(1164.57 231.62) rotate(90)"/>
    <path class="cls-12" d="M308.02,746.71c-.28,0-.5-.22-.5-.5s.22-.5.5-.5h194c.28,0,.5.22.5.5s-.22.5-.5.5h-194Z"/>
  </g>
  <g>
    <rect class="cls-8" x="815.42" y="371.4" width="235.42" height="201.23" rx="25" ry="25"/>
    <path id="path501" class="cls-24" d="M988.09,425.51c-2.24,0-4.39.89-5.98,2.48l-55.31,55.31-13.54-26.65c-3.3-3.3-8.66-3.3-11.96,0-3.3,3.3-3.31,8.65,0,11.96l19.53,32.63c3.3,3.3,8.66,3.3,11.97,0l61.3-61.3c3.3-3.3,3.3-8.66,0-11.96-1.59-1.59-3.74-2.48-5.98-2.47ZM932.48,408.59c-16.2.17-32.19,6.53-44.22,18.57-20.27,20.28-24.41,51.75-10.08,76.58,14.33,24.83,43.66,36.99,71.36,29.56,27.7-7.42,47.02-32.61,47.02-61.28,0-4.67-3.79-8.45-8.46-8.45-4.67,0-8.46,3.79-8.46,8.45,0,21.11-14.11,39.49-34.48,44.95-20.37,5.46-41.77-3.4-52.32-21.68-10.55-18.28-7.52-41.26,7.39-56.18,14.92-14.92,37.88-17.94,56.14-7.39,4.05,2.34,9.22.95,11.56-3.09,2.34-4.04.95-9.21-3.09-11.55-10.09-5.83-21.27-8.6-32.36-8.48Z"/>
  </g>
  <circle class="cls-10" cx="787.25" cy="470.14" r="12"/>
  <g>
    <circle class="cls-9" cx="747.75" cy="470.14" r="10"/>
    <circle class="cls-9" cx="705.75" cy="470.26" r="10"/>
    <circle class="cls-9" cx="663.75" cy="470.39" r="10"/>
    <circle class="cls-9" cx="621.75" cy="470.51" r="10"/>
    <circle class="cls-9" cx="579.75" cy="470.64" r="10"/>
  </g>
  <g>
    <circle class="cls-9" cx="762.75" cy="426.64" r="10"/>
    <circle class="cls-9" cx="724.15" cy="396.64" r="10"/>
    <circle class="cls-9" cx="685.55" cy="366.64" r="10"/>
    <circle class="cls-9" cx="646.95" cy="336.64" r="10"/>
    <circle class="cls-9" cx="608.35" cy="306.64" r="10"/>
    <circle class="cls-9" cx="569.75" cy="276.64" r="10"/>
  </g>
  <g>
    <circle class="cls-9" cx="762.75" cy="520.64" r="10"/>
    <circle class="cls-9" cx="724.15" cy="550.64" r="10"/>
    <circle class="cls-9" cx="685.55" cy="580.64" r="10"/>
    <circle class="cls-9" cx="646.95" cy="610.64" r="10"/>
    <circle class="cls-9" cx="608.35" cy="640.64" r="10"/>
    <circle class="cls-9" cx="569.75" cy="670.64" r="10"/>
  </g>
</svg>